<?xml version="1.0" encoding="UTF-8" standalone="no"?>
<svg xmlns="http://www.w3.org/2000/svg" version="1.1" width="132pt" height="100pt">
<rect x="0pt" y="0pt" width="132pt" height="100pt" style="fill:#ffffff;fill-opacity:1" />
<!-- Printing barcode for "3rd GIG", scaled  1.00, encoded using "code 128-B" -->
<!-- The space/bar succession is represented by the following widths (space first): 02112142211321212411412212122222113132313112113131224112331112 -->
<line x1="11.000000pt" y1="85.000000pt" x2="11.000000pt" y2="10.000000pt" style="stroke:rgb(0,0,0);stroke-width:1.850000pt" />
<line x1="13.500000pt" y1="85.000000pt" x2="13.500000pt" y2="10.000000pt" style="stroke:rgb(0,0,0);stroke-width:0.850000pt" />
<line x1="16.500000pt" y1="85.000000pt" x2="16.500000pt" y2="10.000000pt" style="stroke:rgb(0,0,0);stroke-width:0.850000pt" />
<line x1="22.000000pt" y1="80.000000pt" x2="22.000000pt" y2="10.000000pt" style="stroke:rgb(0,0,0);stroke-width:1.850000pt" />
<line x1="25.500000pt" y1="80.000000pt" x2="25.500000pt" y2="10.000000pt" style="stroke:rgb(0,0,0);stroke-width:0.850000pt" />
<line x1="28.500000pt" y1="80.000000pt" x2="28.500000pt" y2="10.000000pt" style="stroke:rgb(0,0,0);stroke-width:2.850000pt" />
<line x1="32.500000pt" y1="80.000000pt" x2="32.500000pt" y2="10.000000pt" style="stroke:rgb(0,0,0);stroke-width:0.850000pt" />
<line x1="35.500000pt" y1="80.000000pt" x2="35.500000pt" y2="10.000000pt" style="stroke:rgb(0,0,0);stroke-width:0.850000pt" />
<line x1="40.000000pt" y1="80.000000pt" x2="40.000000pt" y2="10.000000pt" style="stroke:rgb(0,0,0);stroke-width:3.850000pt" />
<line x1="43.500000pt" y1="80.000000pt" x2="43.500000pt" y2="10.000000pt" style="stroke:rgb(0,0,0);stroke-width:0.850000pt" />
<line x1="48.500000pt" y1="80.000000pt" x2="48.500000pt" y2="10.000000pt" style="stroke:rgb(0,0,0);stroke-width:0.850000pt" />
<line x1="52.000000pt" y1="80.000000pt" x2="52.000000pt" y2="10.000000pt" style="stroke:rgb(0,0,0);stroke-width:1.850000pt" />
<line x1="55.000000pt" y1="80.000000pt" x2="55.000000pt" y2="10.000000pt" style="stroke:rgb(0,0,0);stroke-width:1.850000pt" />
<line x1="58.000000pt" y1="80.000000pt" x2="58.000000pt" y2="10.000000pt" style="stroke:rgb(0,0,0);stroke-width:1.850000pt" />
<line x1="62.000000pt" y1="80.000000pt" x2="62.000000pt" y2="10.000000pt" style="stroke:rgb(0,0,0);stroke-width:1.850000pt" />
<line x1="66.000000pt" y1="80.000000pt" x2="66.000000pt" y2="10.000000pt" style="stroke:rgb(0,0,0);stroke-width:1.850000pt" />
<line x1="68.500000pt" y1="80.000000pt" x2="68.500000pt" y2="10.000000pt" style="stroke:rgb(0,0,0);stroke-width:0.850000pt" />
<line x1="72.500000pt" y1="80.000000pt" x2="72.500000pt" y2="10.000000pt" style="stroke:rgb(0,0,0);stroke-width:0.850000pt" />
<line x1="77.000000pt" y1="80.000000pt" x2="77.000000pt" y2="10.000000pt" style="stroke:rgb(0,0,0);stroke-width:1.850000pt" />
<line x1="81.500000pt" y1="80.000000pt" x2="81.500000pt" y2="10.000000pt" style="stroke:rgb(0,0,0);stroke-width:0.850000pt" />
<line x1="85.500000pt" y1="80.000000pt" x2="85.500000pt" y2="10.000000pt" style="stroke:rgb(0,0,0);stroke-width:0.850000pt" />
<line x1="88.000000pt" y1="80.000000pt" x2="88.000000pt" y2="10.000000pt" style="stroke:rgb(0,0,0);stroke-width:1.850000pt" />
<line x1="90.500000pt" y1="80.000000pt" x2="90.500000pt" y2="10.000000pt" style="stroke:rgb(0,0,0);stroke-width:0.850000pt" />
<line x1="94.500000pt" y1="80.000000pt" x2="94.500000pt" y2="10.000000pt" style="stroke:rgb(0,0,0);stroke-width:0.850000pt" />
<line x1="98.500000pt" y1="80.000000pt" x2="98.500000pt" y2="10.000000pt" style="stroke:rgb(0,0,0);stroke-width:0.850000pt" />
<line x1="102.000000pt" y1="80.000000pt" x2="102.000000pt" y2="10.000000pt" style="stroke:rgb(0,0,0);stroke-width:1.850000pt" />
<line x1="107.500000pt" y1="80.000000pt" x2="107.500000pt" y2="10.000000pt" style="stroke:rgb(0,0,0);stroke-width:0.850000pt" />
<line x1="110.000000pt" y1="85.000000pt" x2="110.000000pt" y2="10.000000pt" style="stroke:rgb(0,0,0);stroke-width:1.850000pt" />
<line x1="115.500000pt" y1="85.000000pt" x2="115.500000pt" y2="10.000000pt" style="stroke:rgb(0,0,0);stroke-width:2.850000pt" />
<line x1="118.500000pt" y1="85.000000pt" x2="118.500000pt" y2="10.000000pt" style="stroke:rgb(0,0,0);stroke-width:0.850000pt" />
<line x1="121.000000pt" y1="85.000000pt" x2="121.000000pt" y2="10.000000pt" style="stroke:rgb(0,0,0);stroke-width:1.850000pt" />
<text x="21.000000pt" y="90.000000pt" fill="black" style="font-family:Helvetica;font-size:12pt">3</text>
<text x="32.000000pt" y="90.000000pt" fill="black" style="font-family:Helvetica;font-size:12pt">r</text>
<text x="43.000000pt" y="90.000000pt" fill="black" style="font-family:Helvetica;font-size:12pt">d</text>
<text x="54.000000pt" y="90.000000pt" fill="black" style="font-family:Helvetica;font-size:12pt"> </text>
<text x="65.000000pt" y="90.000000pt" fill="black" style="font-family:Helvetica;font-size:12pt">G</text>
<text x="76.000000pt" y="90.000000pt" fill="black" style="font-family:Helvetica;font-size:12pt">I</text>
<text x="87.000000pt" y="90.000000pt" fill="black" style="font-family:Helvetica;font-size:12pt">G</text>
<!-- End barcode for "3rd GIG" -->

</svg>
